<?xml version="1.0" encoding="utf-8"?>
<!-- Generator: Adobe Illustrator 27.9.0, SVG Export Plug-In . SVG Version: 6.00 Build 0)  -->
<svg version="1.1" id="Capa_1" xmlns="http://www.w3.org/2000/svg" xmlns:xlink="http://www.w3.org/1999/xlink" x="0px" y="0px"
	 viewBox="0 0 48 48" style="enable-background:new 0 0 48 48;" xml:space="preserve">
<style type="text/css">
	.st0{fill:none;stroke:#B3B3B3;stroke-miterlimit:10;}
</style>
<g>
	<path class="st0" d="M5.72,13.99c0.7,0,6.97,0,7.41,0c0.44,0,1.21,0.48,1.21,1.05s0,0.77,0,1.33c0,0.56-0.64,1.14-1.18,1.18
		c-0.53,0.03-7.29,0-7.29,0c-0.64,0-1.34-0.14-1.36-1.27c0,0-0.06-0.9,0-1.24C4.57,14.71,5.02,13.99,5.72,13.99z"/>
	<line class="st0" x1="8.97" y1="17.56" x2="8.97" y2="32.13"/>
	<polygon class="st0" points="25.35,25.68 25.35,5.25 33.84,5.25 33.84,25.68 29.59,21.37 	"/>
	<path class="st0" d="M8.97,14.11c0,0-0.18-5.23-0.14-5.77c0.04-0.54,0.81-1.41,1.37-1.42c0.56-0.01,15.14,0,15.14,0"/>
	<path class="st0" d="M33.84,6.93c0,0,3.5,0.03,4.32,0.12c0.81,0.08,1.49,1,1.49,1.72s-0.21,31.86-0.16,32.35
		c-0.02,0.63-0.88,1.73-1.7,1.63c0,0-27.04,0.02-27.63,0c-0.59-0.02-1.51-1.05-1.51-1.4c0-0.35,0-5.65,0-5.65"/>
	<path class="st0" d="M5.58,32.13c0.7,0,6.97,0,7.41,0c0.44,0,1.21,0.48,1.21,1.05c0,0.57,0,0.77,0,1.33s-0.64,1.14-1.18,1.18
		c-0.53,0.03-7.29,0-7.29,0c-0.64,0-1.34-0.14-1.36-1.27c0,0-0.06-0.9,0-1.24C4.43,32.85,4.89,32.13,5.58,32.13z"/>
</g>
</svg>
