<?xml version="1.0" encoding="utf-8"?>
<!-- Generator: Adobe Illustrator 27.9.0, SVG Export Plug-In . SVG Version: 6.00 Build 0)  -->
<svg version="1.1" id="Capa_1" xmlns="http://www.w3.org/2000/svg" xmlns:xlink="http://www.w3.org/1999/xlink" x="0px" y="0px"
	 viewBox="0 0 48 48" style="enable-background:new 0 0 48 48;" xml:space="preserve">
<style type="text/css">
	.st0{fill:none;stroke:#B3B3B3;stroke-miterlimit:10;}
</style>
<g>
	<path class="st0" d="M5.81,8.95c-0.02,1.76-0.04,29.63,0,30.34c0.14,2.29,1.84,3.88,4.18,4.31c0.4,0.07,25.45-0.03,27.67,0
		c2.22,0.03,4.57-2.48,4.57-4.11s-0.2-28.52-0.26-30.54c-0.07-2.02-1.83-4.57-3.92-4.57c-0.48,0-27.96,0-28.12,0
		C7.05,4.38,5.83,7.18,5.81,8.95z"/>
	<polyline class="st0" points="37.58,4.38 37.58,19.26 10.44,19.26 10.44,4.38 	"/>
	<line class="st0" x1="19.57" y1="19.26" x2="19.57" y2="4.38"/>
	<polyline class="st0" points="10.44,43.61 10.44,22.85 37.58,22.85 37.65,43.6 	"/>
	<rect x="29.94" y="7.48" class="st0" width="4.37" height="9.2"/>
</g>
</svg>
