<?xml version="1.0" encoding="utf-8"?>
<!-- Generator: Adobe Illustrator 27.9.0, SVG Export Plug-In . SVG Version: 6.00 Build 0)  -->
<svg version="1.1" id="Capa_1" xmlns="http://www.w3.org/2000/svg" xmlns:xlink="http://www.w3.org/1999/xlink" x="0px" y="0px"
	 viewBox="0 0 48 48" style="enable-background:new 0 0 48 48;" xml:space="preserve">
<style type="text/css">
	.st0{fill:none;stroke:#B3B3B3;stroke-miterlimit:10;}
</style>
<g>
	<path class="st0" d="M12.73,27.01l8.87,9.14c0,0,17.88-17.32,19.11-18.98s-0.3-5.81-0.3-5.81l-4-3.56c0,0-2.62-1.31-5.04,0.34
		S12.73,27.01,12.73,27.01z"/>
	<path class="st0" d="M5.91,42.97c0.03-0.17,0.71-9.85,6.82-15.96c0.1-0.1,8.87,9.14,8.87,9.14C13.48,43.87,5.91,42.97,5.91,42.97z"
		/>
	<line class="st0" x1="5.11" y1="43.88" x2="5.91" y2="42.97"/>
	<path class="st0" d="M40.41,11.36c0,0,1.61-1.07,2.04-1.54c0.43-0.47,0.58-1.95,0.29-2.39c-0.29-0.45-1.11-1.43-1.81-1.8
		c-0.71-0.36-2.27-0.16-2.91,0.33c-0.64,0.5-1.6,1.83-1.6,1.83"/>
	<polyline class="st0" points="18.64,15.69 26.66,7.78 29.53,9.75 	"/>
	<line class="st0" x1="25.13" y1="9.29" x2="29.53" y2="9.64"/>
</g>
</svg>
