<?xml version="1.0" encoding="utf-8"?>
<!-- Generator: Adobe Illustrator 27.9.0, SVG Export Plug-In . SVG Version: 6.00 Build 0)  -->
<svg version="1.1" id="Capa_1" xmlns="http://www.w3.org/2000/svg" xmlns:xlink="http://www.w3.org/1999/xlink" x="0px" y="0px"
	 viewBox="0 0 48 48" style="enable-background:new 0 0 48 48;" xml:space="preserve">
<style type="text/css">
	.st0{fill:none;stroke:#B3B3B3;stroke-miterlimit:10;}
</style>
<path class="st0" d="M15.21,21.95H5.73v17.03c0,0,6.59-0.23,7.95,0s3.46,2.5,4.99,2.76c1.53,0.27,14.24,0.03,15.17-0.2
	s3.19-1.5,3.63-2.56s-0.37-2.13-0.13-2.6s2.6-2.27,2.76-3.07c0.03-1.3-0.62-1.85-1.05-2.82c0.12-1.12,2.07-2.22,1.62-3.59
	c-0.14-0.27-1.17-1.32-1.3-2.27c-0.12-0.95,2.45-1.57,1.96-4.22c-0.26-2.02-1.76-2.4-3.79-2.5c-2.03-0.1-13.27,0-13.27,0
	s1.56-2.03,1.9-3.49s0.47-8.82,0.03-9.48s-1.86-2.33-2.6-2.5c-0.73-0.17-1.93-0.4-2.5,0s-0.73,0.73-1.13,1.5
	c-0.4,0.77,0.54,5.37,0,6.22c-0.54,0.85-2.69,3.83-3.23,5.16C16.21,16.66,15.21,21.95,15.21,21.95z"/>
</svg>
